<svg width="12" height="13" viewBox="0 0 12 13" fill="none" xmlns="http://www.w3.org/2000/svg">
<path d="M0.75 11.375C0.75 12.0078 1.24219 12.5 1.875 12.5H10.125C10.7344 12.5 11.25 12.0078 11.25 11.375V5H0.75V11.375ZM8.25 6.78125C8.25 6.64062 8.36719 6.5 8.53125 6.5H9.46875C9.60938 6.5 9.75 6.64062 9.75 6.78125V7.71875C9.75 7.88281 9.60938 8 9.46875 8H8.53125C8.36719 8 8.25 7.88281 8.25 7.71875V6.78125ZM8.25 9.78125C8.25 9.64062 8.36719 9.5 8.53125 9.5H9.46875C9.60938 9.5 9.75 9.64062 9.75 9.78125V10.7188C9.75 10.8828 9.60938 11 9.46875 11H8.53125C8.36719 11 8.25 10.8828 8.25 10.7188V9.78125ZM5.25 6.78125C5.25 6.64062 5.36719 6.5 5.53125 6.5H6.46875C6.60938 6.5 6.75 6.64062 6.75 6.78125V7.71875C6.75 7.88281 6.60938 8 6.46875 8H5.53125C5.36719 8 5.25 7.88281 5.25 7.71875V6.78125ZM5.25 9.78125C5.25 9.64062 5.36719 9.5 5.53125 9.5H6.46875C6.60938 9.5 6.75 9.64062 6.75 9.78125V10.7188C6.75 10.8828 6.60938 11 6.46875 11H5.53125C5.36719 11 5.25 10.8828 5.25 10.7188V9.78125ZM2.25 6.78125C2.25 6.64062 2.36719 6.5 2.53125 6.5H3.46875C3.60938 6.5 3.75 6.64062 3.75 6.78125V7.71875C3.75 7.88281 3.60938 8 3.46875 8H2.53125C2.36719 8 2.25 7.88281 2.25 7.71875V6.78125ZM2.25 9.78125C2.25 9.64062 2.36719 9.5 2.53125 9.5H3.46875C3.60938 9.5 3.75 9.64062 3.75 9.78125V10.7188C3.75 10.8828 3.60938 11 3.46875 11H2.53125C2.36719 11 2.25 10.8828 2.25 10.7188V9.78125ZM10.125 2H9V0.875C9 0.6875 8.8125 0.5 8.625 0.5H7.875C7.66406 0.5 7.5 0.6875 7.5 0.875V2H4.5V0.875C4.5 0.6875 4.3125 0.5 4.125 0.5H3.375C3.16406 0.5 3 0.6875 3 0.875V2H1.875C1.24219 2 0.75 2.51562 0.75 3.125V4.25H11.25V3.125C11.25 2.51562 10.7344 2 10.125 2Z" fill="#D4AD51"/>
</svg>
