<svg width="59" height="48" viewBox="0 0 59 48" fill="none" xmlns="http://www.w3.org/2000/svg">
<path fill-rule="evenodd" clip-rule="evenodd" d="M44.7184 40.6536H44.2169C44.007 40.6236 43.8141 40.5217 43.6709 40.3652C43.5278 40.2087 43.4433 40.0074 43.432 39.7956V39.2939C43.4615 39.0692 43.5597 38.8591 43.7132 38.6924C43.8668 38.5258 44.0681 38.4108 44.2896 38.3632H44.9292C45.249 38.3632 45.656 38.9667 45.656 39.3666V39.6502C45.6638 39.7779 45.6457 39.9059 45.6027 40.0264C45.5597 40.1469 45.4926 40.2574 45.4056 40.3512C45.3186 40.4451 45.2136 40.5202 45.0967 40.5722C44.9798 40.6242 44.8536 40.6519 44.7257 40.6536H44.7184ZM42.5744 40.5082C42.0875 40.5082 42.1965 40.6536 41.8476 40.6536H41.7749C41.3025 40.6536 40.772 40.3264 40.772 39.8683V39.3666C40.7976 39.1092 40.9115 38.8686 41.0943 38.6856C41.2771 38.5027 41.5176 38.3888 41.7749 38.3632C42.5017 38.3632 42.9887 38.7049 42.9887 39.432V39.5993C42.9887 40.1592 42.7634 40.2246 42.5599 40.53L42.5744 40.5082ZM47.8581 40.5082L47.0732 40.5809H46.8624C46.6514 40.5536 46.4568 40.4525 46.3132 40.2954C46.1695 40.1384 46.086 39.9356 46.0775 39.7229C46.0775 39.0467 46.2665 38.3632 46.9351 38.3632H47.2912C47.4298 38.3471 47.5702 38.3615 47.7027 38.4053C47.8351 38.4491 47.9564 38.5213 48.0581 38.6168C48.1598 38.7124 48.2395 38.8289 48.2916 38.9584C48.3436 39.0879 48.3668 39.2272 48.3596 39.3666V39.4393C48.3596 40.0719 48.0834 40.1664 47.8581 40.5082ZM28.642 38.225H29.4269C29.6304 38.225 30.1537 38.814 30.1537 39.0103V39.7956C30.1537 39.9774 29.8485 40.1882 29.7249 40.3555L28.94 40.4355H28.8019C27.3483 40.4355 27.6754 38.2541 28.6566 38.2541L28.642 38.225ZM25.0081 39.0103C25.2407 38.6613 25.3715 38.0723 26.1419 38.1523C26.7379 38.2177 27.2902 38.3632 27.2902 39.0103V39.4393C27.2904 39.5832 27.2599 39.7255 27.2007 39.8566C27.1415 39.9877 27.055 40.1047 26.9469 40.1997C26.8389 40.2947 26.7119 40.3655 26.5743 40.4074C26.4367 40.4493 26.2918 40.4614 26.1492 40.4427C24.8628 40.4427 25.0081 39.9701 25.0081 38.9885V39.0103ZM16.1414 27.2382C15.2911 27.2382 14.1718 26.6274 13.3651 26.4456C12.9799 26.3584 10.8577 25.7621 10.8577 25.4494V25.304C10.8577 25.1368 10.9086 25.0932 11.0685 25.0932H16.2141C16.6574 25.0932 17.5005 25.6021 17.5005 26.0966V26.1693C17.5005 26.9546 17.1371 27.2382 16.3594 27.2382H16.1414ZM14.6878 21.8066C14.676 21.6587 14.6962 21.5101 14.747 21.3707C14.7977 21.2313 14.8779 21.1046 14.982 20.999C15.0862 20.8934 15.2118 20.8116 15.3504 20.7589C15.489 20.7063 15.6373 20.6842 15.7853 20.6941H15.9306C16.2168 20.7399 16.4764 20.8884 16.661 21.1119C16.8456 21.3354 16.9425 21.6186 16.9336 21.9084C16.9207 22.1427 16.829 22.3659 16.6733 22.5415C16.5176 22.717 16.3071 22.8347 16.076 22.8754H15.7199C15.4621 22.8512 15.2208 22.7377 15.0377 22.5545C14.8546 22.3713 14.7411 22.1299 14.7169 21.872V21.7993L14.6878 21.8066ZM28.2568 4.51557C27.392 4.51557 25.1026 5.70078 24.6229 6.18068C22.4426 8.36205 22.4426 9.92537 22.101 12.7248C22.0501 13.1829 22.1591 13.6264 21.7521 13.6628C21.7013 13.0884 21.4614 12.892 21.4687 12.2085C21.476 11.525 21.4687 11.067 21.4687 10.4925C21.3379 10.4053 21.3451 10.3471 21.1853 10.3471C18.0165 10.3471 14.7969 12.9502 13.6921 15.786C13.5613 16.1277 13.3433 16.5131 13.2197 16.8839C12.5345 19.1443 12.1628 21.4882 12.115 23.8498C12.0423 25.0423 10.0437 24.4169 10.0437 25.0641C10.0437 25.304 10.8577 25.9802 11.083 26.0966C11.3331 26.1934 11.5467 26.366 11.694 26.5902C11.8412 26.8145 11.9148 27.0791 11.9043 27.3472V27.7762C11.9173 28.1644 11.7899 28.5443 11.5456 28.8461C11.3013 29.1479 10.9565 29.3515 10.5743 29.4195H10.4289C9.02621 29.4195 9.4332 27.4272 7.57265 26.991C7.07843 27.2527 7.14385 27.7762 6.5697 27.7762C5.84292 27.7762 5.19608 26.991 4.06957 26.991C3.95613 26.9708 3.83924 26.9872 3.73567 27.0376C3.63209 27.0881 3.54717 27.1701 3.49308 27.2719C3.43899 27.3736 3.41851 27.4899 3.4346 27.6041C3.45069 27.7182 3.50252 27.8243 3.58263 27.9071C3.82247 28.2125 4.30941 28.2271 4.6946 28.5833C5.26503 29.2043 5.75353 29.8959 6.14816 30.6411C6.26445 30.8374 6.70052 31.3682 6.87494 31.6155C7.14118 31.9411 7.43543 32.2428 7.75434 32.5171C8.07453 32.7982 8.41458 33.0557 8.77184 33.2878C9.22971 33.5569 9.68032 33.5351 10.0582 33.7823C11.0321 33.7823 11.3083 34.0222 12.4203 33.7823C13.141 33.6475 13.8468 33.4429 14.5279 33.1715C15.0863 32.8402 15.6162 32.4633 16.1123 32.0445C16.403 31.7682 17.2243 30.852 17.6313 30.8447C17.7476 31.3391 18.0456 32.6334 18.5616 32.6334H18.7069C19.3538 32.6334 19.6372 31.39 20.1605 30.9247C20.7561 30.4112 21.4626 30.0429 22.2245 29.8485H22.2972C23.4455 29.8485 25.4296 30.3866 25.8948 31.6082C26.5198 33.266 26.1564 34.473 26.1637 36.429L26.0111 36.6326C26.0111 37.8978 24.5575 38.1741 24.5575 39.4902C24.5575 41.1989 27.4065 40.8499 29.2016 40.8499C30.9968 40.8499 33.5623 41.0899 35.1249 40.9154C36.0915 40.8063 36.1279 39.9047 35.9898 39.0539C35.8372 38.0723 35.5028 37.5997 35.6845 36.4726C35.9098 35.0547 35.5173 35.2002 36.1497 33.935C36.3483 33.59 36.6375 33.306 36.986 33.1137C37.3345 32.9215 37.7289 32.8283 38.1265 32.8443C39.9144 32.8443 41.5569 33.6296 41.5569 35.4183V35.491C41.5569 36.5672 40.3286 39.2139 40.3286 39.352L40.4304 40.3264C40.674 40.6565 41.0314 40.8845 41.4334 40.9663H46.9351H49.4352H50.4382C50.7616 40.9244 51.0561 40.7584 51.2595 40.5033C51.4629 40.2482 51.5593 39.9241 51.5283 39.5993L51.1431 34.8148V33.6514C51.1362 32.0895 51.3641 30.5355 51.8191 29.0414C52.1156 28.4135 52.3587 27.7616 52.5458 27.0927C52.6839 26.591 52.822 25.3113 53.1709 25.0786C53.7305 25.4494 53.229 27.7253 53.8976 27.7253C54.0721 27.7253 54.1084 27.609 54.2537 27.5145C54.3402 26.9177 54.4665 26.3274 54.6317 25.7476C54.7407 25.1077 54.8279 24.5042 54.9079 23.8062C56.0416 13.83 45.9757 9.36548 37.7631 9.36548C37.2834 9.36548 37.189 9.51091 36.6221 9.51091H35.3357C34.34 9.51091 33.6931 9.40911 33.6931 10.4416L33.6277 10.9506C34.1728 14.8916 35.4011 18.4109 34.2964 22.4028C33.9513 23.5692 33.3103 24.6263 32.4358 25.4713C31.7599 25.9221 30.0592 27.0128 29.049 27.0128H28.5475C28.3804 27.0128 28.3368 26.9619 28.3368 26.8019C28.3368 26.3365 30.1683 26.0748 30.6625 25.8421C31.4189 25.5354 32.0474 24.9784 32.4431 24.2642C35.154 19.8215 33.6423 16.2659 32.8428 11.4451C32.8621 10.2122 33.0554 8.9882 33.417 7.80944C33.417 7.18411 33.7731 6.54424 33.7731 5.52627C33.7061 5.06352 33.4867 4.63635 33.1497 4.31237C32.8127 3.98839 32.3774 3.78611 31.9125 3.73755C30.6852 3.89438 29.4724 4.1497 28.2859 4.50103L28.2568 4.51557Z" fill="#D4AD51"/>
<path fill-rule="evenodd" clip-rule="evenodd" d="M21.2874 3.2866C22.3915 3.20964 23.4836 3.00966 24.5434 2.69036C25.5376 2.36046 26.5494 2.08615 27.574 1.86871C28.7272 1.65082 29.8965 1.52922 31.0698 1.50514C32.3126 1.55604 33.5118 1.78145 34.5657 1.86144C36.6879 2.03595 38.483 3.14844 40.9904 3.14844C42.8073 3.14844 47.2552 2.97393 48.498 3.35204C49.5049 3.55397 50.4819 3.88385 51.4052 4.33365C52.2386 4.74244 52.9804 5.31635 53.5855 6.02058C54.1254 6.82928 54.5418 7.71397 54.821 8.6455C55.0318 9.67074 55.1045 10.9432 55.3443 11.983C55.4678 12.5211 55.4533 13.1537 55.6059 13.6481C55.6932 13.939 55.8894 14.9497 55.9403 15.2478C56.1147 16.3457 56.2746 17.48 56.4417 18.6071C56.4728 19.1714 56.558 19.7314 56.6961 20.2795C56.7906 20.5412 57.045 21.6101 57.0813 21.821C57.3488 22.9414 57.4974 24.0869 57.5246 25.2384V26.3655C57.3628 27.8694 56.9398 29.3335 56.2746 30.6919C55.4728 33.0644 55.1685 35.5768 55.3806 38.0722C55.4536 39.4838 55.1207 40.8868 54.4213 42.115C53.8035 43.1911 52.5535 43.5111 51.238 43.8601C48.7233 44.5218 46.9718 46.5068 43.9702 46.5068H36.7024C34.8273 46.5068 33.192 45.896 31.6149 45.6197C29.8658 45.2579 28.0878 45.0535 26.3022 45.0089H22.1595C20.1463 45.0089 18.0023 45.0089 16.0909 45.1544C14.1795 45.2998 12.159 45.5834 10.3784 45.5834H9.17924C7.58032 45.5834 5.76337 44.1873 4.91304 43.3511C3.83808 42.0538 3.16158 40.4729 2.96526 38.7993V37.5705C2.98045 37.0196 2.93659 36.4687 2.83445 35.9272C2.67456 35.0982 2.50739 34.422 2.38384 33.5931C2.29662 33.0041 2.04952 32.0225 1.9187 31.2736C1.74381 30.5064 1.61518 29.7294 1.53351 28.9468V28.3724C1.63317 27.1573 1.9048 25.9626 2.34023 24.824C2.71948 23.7289 3.03256 22.6119 3.27779 21.4792C3.36807 20.0655 3.38263 18.6481 3.32139 17.2328C3.30667 15.87 3.37705 14.5077 3.53215 13.1537C3.6121 12.4629 3.82286 11.9394 3.89554 11.2995C3.94642 10.856 4.09905 9.95432 4.20806 9.47442C4.45984 8.3876 4.84812 7.33704 5.36364 6.34779C5.85785 5.53341 6.47562 4.44272 7.29688 3.99191C8.28898 3.3639 9.43702 3.02638 10.611 3.01756L14.3975 3.32295H21.331L21.2874 3.2866ZM57.9534 30.9173C58.6433 29.4579 59.0008 27.8635 59 26.2491V24.5113C59 22.1918 58.2223 20.8103 58.0043 18.9343C57.8198 17.025 57.5335 15.1269 57.1467 13.2482C56.7397 11.4522 56.6961 9.24901 56.1946 7.62752C55.7409 6.07461 54.8008 4.70846 53.5128 3.73014C49.8062 1.29428 48.1855 1.71601 42.3858 1.71601C40.4815 1.66131 38.5967 1.31557 36.7969 0.690767C34.8915 0.239092 32.9407 0.00732494 30.9826 0H30.5538C26.1932 0 23.6858 1.85416 19.5577 1.85416H15.5604L10.5601 1.52696L9.27372 1.57059C8.11979 1.69865 7.01964 2.12739 6.08316 2.81397C5.31547 3.50511 4.64551 4.29769 4.09178 5.16985C2.82718 7.59117 2.70362 8.94362 2.11493 11.9757C1.88326 13.3541 1.79557 14.7529 1.85329 16.1494C1.9193 17.584 1.90232 19.0213 1.80242 20.454C1.6021 21.6479 1.29314 22.821 0.879409 23.9587C0.469818 25.0871 0.175183 26.254 0 27.4416V29.2958C0 29.7539 0.675913 33.8185 0.814001 34.1966C1.32704 35.7666 1.53668 37.4199 1.43176 39.0683C1.43176 42.7039 5.21101 47.0667 8.69956 47.0667H10.1531L20.1463 46.4341L26.3676 46.4923C28.2558 46.548 30.1301 46.8337 31.9493 47.343C33.8346 47.8327 35.7802 48.0506 37.7272 47.9901H43.2289C45.5255 47.9901 46.3976 47.8811 47.9748 47.0958C49.221 46.4097 50.5186 45.8214 51.8558 45.3361C53.9998 44.7472 54.087 44.7253 55.4897 43.3293C56.2164 42.6021 56.8633 40.6026 56.8633 39.1338C56.8633 35.9053 56.8923 34.1239 57.9534 30.8737V30.9173Z" fill="#D4AD51"/>
</svg>
