<svg width="316" height="280" viewBox="0 0 316 280" fill="none" xmlns="http://www.w3.org/2000/svg">
<path d="M286.789 55.2344C285.148 53.0469 282.414 51.9531 279.68 51.9531C278.039 51.9531 274.758 53.0469 273.664 54.1406L187.805 140L273.664 226.406C274.758 227.5 278.039 228.594 279.68 228.594C279.68 228.594 279.68 228.594 280.227 228.594C282.414 228.594 285.148 227.5 286.789 225.312C302.648 204.531 315.227 166.25 315.227 140C315.227 114.297 302.648 76.0156 286.789 55.2344ZM252.883 180.469L212.414 140L252.883 100.078C258.352 110.469 262.727 128.516 263.273 140C262.727 152.031 258.352 170.078 252.883 180.469ZM278.586 206.719L265.461 193.594C273.664 179.922 280.227 155.859 280.773 140C280.773 120.859 274.758 102.812 265.461 86.9531L278.586 73.8281C289.523 90.7812 298.273 120.312 298.273 140C298.273 160.234 289.523 189.766 278.586 206.719ZM140.773 140L233.195 47.5781C237.023 44.2969 237.023 38.2812 233.195 35C211.32 15.8594 169.758 0 140.773 0C96.4766 0 52.1797 21.3281 23.7422 62.8906C-7.42969 109.375 -7.42969 171.172 23.7422 217.656C52.1797 259.219 96.4766 280 140.773 280C169.758 280 211.32 264.688 233.195 245.547C237.023 242.266 237.023 236.25 233.195 232.969L140.773 140ZM145.148 105C140.227 105 136.398 101.172 136.398 96.25C136.398 91.875 140.227 87.5 145.148 87.5C149.523 87.5 153.898 91.875 153.898 96.25C153.898 101.172 149.523 105 145.148 105ZM169.211 86.9531C165.93 77.6562 154.992 70 144.602 70C130.383 70 118.352 82.0312 118.352 96.25C118.352 106.641 126.008 117.578 135.305 120.859L116.164 140L188.352 212.734C174.68 222.031 158.273 227.5 140.773 227.5C130.383 227.5 121.086 225.859 112.336 222.578C118.352 218.203 123.273 208.906 123.273 201.25C123.273 187.031 111.242 175 97.0234 175C86.0859 175 75.1484 183.75 71.8672 193.594C60.3828 178.828 53.2734 160.234 53.2734 140C53.2734 91.875 92.1016 52.5 140.773 52.5C158.273 52.5 174.68 58.5156 188.352 67.8125L169.211 86.9531ZM105.773 201.25C105.773 206.172 101.398 210 97.0234 210C92.1016 210 88.2734 206.172 88.2734 201.25C88.2734 196.875 92.1016 192.5 97.0234 192.5C101.398 192.5 105.773 196.875 105.773 201.25ZM140.773 262.5C99.2109 262.5 62.0234 242.812 38.5078 207.812C11.1641 167.344 11.1641 113.203 38.5078 72.7344C62.0234 37.7344 99.2109 17.5 140.773 17.5C163.195 17.5 196.008 28.4375 214.055 42.1094L200.93 55.2344C183.977 42.6562 163.195 35 140.773 35C82.8047 35 35.7734 82.0312 35.7734 140C35.7734 197.969 82.8047 245 140.773 245C163.195 245 183.977 237.891 201.477 225.312L214.055 238.438C196.008 252.109 163.195 262.5 140.773 262.5Z" fill="black" fill-opacity="0.5"/>
</svg>
